<svg xmlns="http://www.w3.org/2000/svg" xmlns:xlink="http://www.w3.org/1999/xlink" fill="none" version="1.1" width="30" height="30" viewBox="0 0 30 30"><defs><clipPath id="master_svg0_73_42538"><rect x="6.464999973773956" y="6.464999973773956" width="17.070000052452087" height="17.070000052452087" rx="0"/></clipPath></defs><rect x="0" y="0" width="30" height="30" rx="4" fill="#F6F6F6" fill-opacity="1"/><g clip-path="url(#master_svg0_73_42538)"><path d="M21.465002,12.8333335L21.465002,15.5L21.465108,15.5Q21.465107,15.5526819,21.475385,15.604351999999999Q21.485661999999998,15.656021599999999,21.505822000000002,15.704693800000001Q21.525984,15.753366,21.555252,15.797169700000001Q21.584521000000002,15.8409739,21.621774000000002,15.8782263Q21.659025,15.915478199999999,21.702828,15.944747Q21.746631999999998,15.974015699999999,21.795304,15.9941764Q21.843977000000002,16.0143371,21.895647,16.024614800000002Q21.947318,16.034893,22.000000999999997,16.034893Q22.052683000000002,16.034893,22.104352,16.024614800000002Q22.156021000000003,16.0143366,22.204694,15.9941759Q22.253366,15.9740152,22.297171,15.944747Q22.340975,15.915478199999999,22.378225999999998,15.8782263Q22.415478,15.8409739,22.444747,15.7971702Q22.474015,15.753366,22.494176,15.704693800000001Q22.514338000000002,15.656021599999999,22.524614,15.6043515Q22.534893,15.5526819,22.534894,15.5L22.535001,15.5L22.535001,12.8333335Q22.535001,12.1975143,22.085411,11.7479247Q21.635821,11.2983334,21.000000999999997,11.2983334L17.3889837,11.2983334Q17.208106,11.2983334,17.0747709,11.1761099L15.648254399999999,9.86846861Q15.208106,9.46499991,14.6110172,9.46499991L9,9.464999970000001Q8.36418226,9.464999970000001,7.914591119,9.914591074Q7.46500003,10.36418217,7.46499997,11.0000001L7.46499997,20Q7.46499997,20.635818,7.914591201,21.085409Q8.36418197,21.535,9.0000001,21.535L15.000000499999999,21.535L15.000000499999999,21.534893Q15.0526829,21.534893,15.104352500000001,21.524614Q15.156022100000001,21.514336,15.2046943,21.494175Q15.2533665,21.474014,15.297170600000001,21.444746000000002Q15.3409743,21.415477,15.3782268,21.378225Q15.415478700000001,21.340972999999998,15.4447474,21.29717Q15.474016200000001,21.253366,15.4941764,21.204694Q15.5143375,21.156021000000003,15.5246153,21.104351Q15.534893,21.052682,15.534893499999999,21Q15.534893,20.947316999999998,15.5246153,20.895647Q15.5143375,20.843977000000002,15.4941769,20.795304Q15.474016200000001,20.746631999999998,15.444747,20.702827Q15.415478700000001,20.659025,15.3782268,20.621772999999997Q15.3409743,20.584519999999998,15.2971702,20.555252Q15.2533665,20.525983,15.2046943,20.505822000000002Q15.156022100000001,20.485661999999998,15.104353,20.475385Q15.0526829,20.465107,15.000000499999999,20.465107L15.000000499999999,20.465L9.0000001,20.465Q8.535000029999999,20.465,8.535000029999999,20L8.535000029999999,11.0000001Q8.535000029999999,10.80739081,8.67119545,10.67119539Q8.80739081,10.535000029999999,9,10.535000029999999L14.6110172,10.53499997Q14.7918944,10.53499997,14.9252286,10.65722328L16.3517466,11.9648653Q16.791894,12.3683333,17.3889837,12.3683333L21.000000999999997,12.3683333Q21.465002,12.3683333,21.465002,12.8333335Z" fill-rule="evenodd" fill="#5F5F60" fill-opacity="1"/><path d="M16,18.53500003L22,18.53500003L22,18.53489304Q22.0526819,18.53489304,22.104352,18.52461523Q22.1560221,18.51433736,22.2046938,18.49417669Q22.253366,18.47401601,22.2971697,18.44474727Q22.3409739,18.41547853,22.3782263,18.37822646Q22.415477799999998,18.34097439,22.4447465,18.29717061Q22.4740152,18.25336683,22.4941764,18.20469467Q22.5143366,18.15602252,22.524614800000002,18.10435244Q22.534893,18.052682362,22.534893,18Q22.534893,17.947317638,22.524614800000002,17.89564756Q22.5143366,17.84397748,22.494175900000002,17.79530533Q22.4740152,17.74663317,22.4447465,17.70282939Q22.415477799999998,17.65902561,22.3782263,17.62177354Q22.3409739,17.58452147,22.2971702,17.55525273Q22.253366,17.52598399,22.2046938,17.50582331Q22.1560221,17.48566264,22.104352,17.47538477Q22.0526819,17.46510696,22,17.46510696L22,17.46499997L16,17.46499997L16,17.46510696Q15.947317638,17.46510696,15.89564756,17.47538477Q15.84397748,17.48566264,15.79530533,17.50582331Q15.74663317,17.52598399,15.70282939,17.55525273Q15.65902561,17.58452147,15.62177354,17.62177354Q15.58452147,17.65902561,15.55525273,17.70282939Q15.52598399,17.74663317,15.50582331,17.79530533Q15.48566264,17.84397748,15.47538477,17.89564756Q15.46510696,17.947317638,15.46510696,18Q15.46510696,18.052682362,15.47538477,18.10435244Q15.48566264,18.15602252,15.50582331,18.20469467Q15.52598399,18.25336683,15.55525273,18.29717061Q15.58452147,18.34097439,15.62177354,18.37822646Q15.65902561,18.41547853,15.70282939,18.44474727Q15.74663317,18.47401601,15.79530533,18.49417669Q15.84397748,18.51433736,15.89564756,18.52461523Q15.947317638,18.53489304,16,18.53489304L16,18.53500003Z" fill-rule="evenodd" fill="#5F5F60" fill-opacity="1"/><g transform="matrix(0,1,-1,0,34,-4)"><path d="M19,15.535000029999999L25,15.535000029999999L25,15.53489304Q25.0526819,15.53489304,25.104352,15.52461523Q25.1560221,15.51433736,25.2046938,15.49417669Q25.253366,15.47401601,25.2971697,15.44474727Q25.3409739,15.41547853,25.3782263,15.37822646Q25.415477799999998,15.34097439,25.4447465,15.29717061Q25.4740152,15.25336683,25.4941764,15.20469467Q25.5143366,15.15602252,25.524614800000002,15.10435244Q25.534893,15.052682362,25.534893,15Q25.534893,14.947317638,25.524614800000002,14.89564756Q25.5143366,14.84397748,25.494175900000002,14.79530533Q25.4740152,14.74663317,25.4447465,14.70282939Q25.415477799999998,14.65902561,25.3782263,14.62177354Q25.3409739,14.58452147,25.2971702,14.55525273Q25.253366,14.52598399,25.2046938,14.50582331Q25.1560221,14.48566264,25.104352,14.47538477Q25.0526819,14.46510696,25,14.46510696L25,14.464999970000001L19,14.464999970000001L19,14.46510696Q18.947317638,14.46510696,18.89564756,14.47538477Q18.84397748,14.48566264,18.79530533,14.50582331Q18.74663317,14.52598399,18.70282939,14.55525273Q18.65902561,14.58452147,18.62177354,14.62177354Q18.58452147,14.65902561,18.55525273,14.70282939Q18.52598399,14.74663317,18.50582331,14.79530533Q18.48566264,14.84397748,18.47538477,14.89564756Q18.46510696,14.947317638,18.46510696,15Q18.46510696,15.052682362,18.47538477,15.10435244Q18.48566264,15.15602252,18.50582331,15.20469467Q18.52598399,15.25336683,18.55525273,15.29717061Q18.58452147,15.34097439,18.62177354,15.37822646Q18.65902561,15.41547853,18.70282939,15.44474727Q18.74663317,15.47401601,18.79530533,15.49417669Q18.84397748,15.51433736,18.89564756,15.52461523Q18.947317638,15.53489304,19,15.53489304L19,15.535000029999999Z" fill-rule="evenodd" fill="#5F5F60" fill-opacity="1"/></g></g></svg>