<svg xmlns="http://www.w3.org/2000/svg" xmlns:xlink="http://www.w3.org/1999/xlink" fill="none" version="1.1" width="30" height="30" viewBox="0 0 30 30"><defs><clipPath id="master_svg0_71_30812"><rect x="5" y="5" width="20" height="20" rx="0"/></clipPath></defs><rect x="0" y="0" width="30" height="30" rx="4" fill="#F6F6F6" fill-opacity="1"/><g clip-path="url(#master_svg0_71_30812)"><path d="M16.733924328125,10.176733528125L15.666623128125,9.109432228125L15.666623128125,14.333289628125L20.890481328125,14.333289628125L19.823180328124998,13.265989328125C19.660462328125,13.103271028125,19.660462328125,12.839451828125,19.823180328124998,12.676733028125L20.176732328125,12.323180228125C20.339451328125,12.160461928124999,20.603269328125002,12.160461928124999,20.765988328124998,12.323180228125L23.148136328125,14.705328428125C23.310856328125,14.868046728125,23.310856328125,15.131866428125,23.148136328125,15.294585228125L20.765988328124998,17.676733328125C20.603269328125002,17.839451328125,20.339451328125,17.839451328125,20.176732328125,17.676733328125L19.823180328124998,17.323180328124998C19.660462328125,17.160462328125,19.660462328125,16.896642328125,19.823180328124998,16.733924328125L20.890481328125,15.666623128125L15.666623128125,15.666623128125L15.666623128125,20.890481328125L16.733924328125,19.823180328124998C16.896642328125,19.660462328125,17.160462328125,19.660462328125,17.323180328124998,19.823180328124998L17.676733328125,20.176732328125C17.839451328125,20.339451328125,17.839451328125,20.603269328125002,17.676733328125,20.765988328124998L15.294585228125,23.148136328125C15.131866428125,23.310856328125,14.868046728125,23.310856328125,14.705328428125,23.148136328125L12.323180228125,20.765988328124998C12.160461928124999,20.603269328125002,12.160461928124999,20.339451328125,12.323180228125,20.176732328125L12.676733028125,19.823180328124998C12.839451828125,19.660462328125,13.103271028125,19.660462328125,13.265989328125,19.823180328124998L14.333289628125,20.890481328125L14.333289628125,15.666623128125L9.109432228125,15.666623128125L10.176733528125,16.733924328125C10.339451828125,16.896642328125,10.339451828125,17.160462328125,10.176733028125,17.323180328124998L9.823179728125,17.676733328125C9.660461228125,17.839451328125,9.396642728125,17.839451328125,9.233924128125,17.676733328125L6.851775178125,15.294585228125C6.689056713125,15.131866428125,6.689056702125,14.868046728125,6.851775208125,14.705328428125L9.233924128125,12.323180228125C9.396642728125,12.160461928124999,9.660461228125,12.160461928124999,9.823179528125,12.323180228125L10.176733028125,12.676733528125C10.339451828125,12.839451828125,10.339451828125,13.103271028125,10.176733028125,13.265989328125L9.109432228125,14.333289628125L14.333289628125,14.333289628125L14.333289628125,9.109432228125L13.265989328125,10.176733028125C13.103271028125,10.339451828125,12.839451828125,10.339451828125,12.676733528125,10.176733028125L12.323180228125,9.823179728125C12.160461928124999,9.660461228125,12.160461928124999,9.396642728125,12.323180228125,9.233924128125L14.705328428125,6.851775168125C14.868046728125,6.689056691125,15.131866428125,6.689056702125,15.294585228125,6.851775188125L17.676733328125,9.233923928125C17.839451328125,9.396642728125,17.839451328125,9.660461228125,17.676733328125,9.823179728125L17.323180328124998,10.176733028125C17.160462328125,10.339451828125,16.896642328125,10.339451828125,16.733924328125,10.176733528125Z" fill-rule="evenodd" fill="#5F5F60" fill-opacity="1"/></g></svg>